<svg xmlns="http://www.w3.org/2000/svg" viewBox="0 0 180 180"><path fill="#4B0082" d="M0 0h180v180H0z"/><path fill="#fff" d="M101 76.8v48.1H79v-34c0-3.2 0-6-.2-8.4-.1-2.3-.6-4.2-1.3-5.6s-1.8-2.5-3.3-3.2c-1.5-.7-3.5-1-6.2-1-2.1 0-4.2.4-6.2 1.3l-5.5 2.7V125H34.5v-68h21.8v7.6c3.8-3 7.4-5.3 10.8-7a25.8 25.8 0 0 1 23.2.6c3.4 2 6 5 8 8.8a68 68 0 0 1 12.7-8.7c4.1-2 8.2-3.1 12-3.1 7.4 0 13 2.2 16.8 6.6 3.8 4.4 5.7 10.7 5.7 19v44.2h-21.8v-34l-.2-8.4a14 14 0 0 0-1.3-5.6c-.7-1.5-1.8-2.6-3.3-3.2a17.2 17.2 0 0 0-11.6 0c-1.8.5-3.9 1.6-6.4 3Z"/></svg>