<svg xmlns="http://www.w3.org/2000/svg" viewBox="0 0 180 180"><path fill="indigo" d="M0 0h180v180H0z"/><path fill="#fff" d="M46.5 108.8c-1.7 5-2.6 11.2-7 13.7-3.9 1.7-5.3-2.6-4.1-6 1.8-5.6 5.4-11 7-16.9a36 36 0 0 0-1.6-31.3c-1.2-2.2-2.5-4.4-3-6.2-1.9-5.4 2-6.2 5.9-3.4 3.7 2.5 6.4 6.7 9 10.3a134.1 134.1 0 0 0 31.1 34.4c14.4 10.4 31.4-2.4 41-13.6 3.4-4 6.3-8.4 8.5-13.2 1.4-3.3 4.6-10 7-10 1.9 0 2.4 2 2.7 5 0 9.7-2.5 20-.7 29.7.8 5.5 3.3 10.3 2.6 14.8-.2 1.8-1.5 3.8-3.5 2.8-3-1.8-3.8-6-4.5-9.6-1.7-10.1-1.3-19.5-13.2-9-9.6 7.7-21.9 14.8-34.6 12.6-12.2-2.1-20.5-12.7-29-20.9-7.7-6.9-9 2.3-11.6 10.1l-2 6.6v.2Z"/></svg>