<svg xmlns="http://www.w3.org/2000/svg" viewBox="0 0 180 180"><path fill="indigo" d="M0 0h180v180H0z"/><path fill="#fff" d="M145.3 115.5c-.7 4-6 7-9.3 4.9-6-3.5-2.2-23.5-7-23.5-3.4.6-6.6 4.6-9.7 6.6-9.6 7.3-22.2 13.2-33.7 8a65.8 65.8 0 0 1-20.1-14.4c-7.7-8.2-9.5-6.3-12.3 4-2.5 6.4-3.4 16.5-7.7 21-3 3.3-10.3 2.8-11-2.3-.3-2.6 1.4-5.6 2.6-8a76 76 0 0 0 7.2-17.4 30.1 30.1 0 0 0-4.9-28.7c-2.2-3.4-3.3-7.8 1.2-9.4 8.8-2.7 13.5 8 18.1 13.6C68 81.6 76.5 95.6 90 103c13.5 5.8 26-7.9 33.3-17.7 4.5-5.6 6.5-12.7 10.7-18.3 3.3-4 8.4-2.2 9.2 2.5.6 3-.1 6.4-.7 9.5-1.3 7.4-2 15.4-.2 22.6.9 4.5 4 9.1 3.2 13.8v.2Z"/></svg>