<svg xmlns="http://www.w3.org/2000/svg" viewBox="0 0 1000 112"><path fill="#ffffff" d="M167 92c-1 6-9 11-14 8-9-5-3-35-10-35-5 1-10 7-15 10-14 10-33 19-50 12-11-5-21-13-30-22-11-12-14-9-18 6-4 10-5 25-11 31-5 5-15 4-16-3-1-4 2-8 3-12 5-8 9-17 11-26 5-16 2-29-7-43-3-5-5-11 2-13 13-4 20 12 26 20 14 17 27 38 47 49 20 8 38-12 49-27 7-8 10-18 16-27 5-6 12-3 14 4 1 4-1 10-1 14-2 11-3 23-1 34 2 6 6 13 5 20Zm132 6c0 6-6 9-12 8-11-2-16-17-27-22-6-3-15-2-23-2l-22 1c-5 1-10 4-13 9-3 4-5 10-10 12-5 3-17 1-14-7l19-28 11-19c2-4 5-9 5-14-1-7-13-15-17-22-4-9 9-12 15-9 8 4 13 12 18 18a653 653 0 0 0 64 66l6 9Zm-52-30c1-1-1-3-2-5-5-5-10-11-17-15-2-1-4 1-5 3l-7 12c-3 5-1 7 4 7h21c3 0 6 0 6-2Zm171 32c1 4-4 8-9 10-12 2-23-13-33-18-14-10-29-20-44-27-11-5-7 11-8 19 0 8 4 19-4 22-4 1-7 1-10-1-5-3-5-9-4-14 4-18 3-35 2-53l-2-21c-1-3 1-6 4-8 23-13 72 1 48 33-4 4-10 7-12 10-2 5 7 8 10 11 17 10 35 22 53 29 4 2 8 4 9 8Zm-71-76c-1-7-9-10-16-8-4 2-5 7-5 11l-1 15c0 8 5 6 11 3 7-4 11-12 11-20v-1Zm156 75c-1 5-8 7-12 7-7 0-13-5-18-10l-18-18c-5-5-14-12-15 1-1 8 3 23-7 27-3 2-7 0-8-4-2-4-2-8-2-12l1-25c0-13 0-28-2-41-1-5-1-12 4-16 4-3 10-3 13 1 6 7 3 17 2 25 0 7-2 18 6 13l26-27c7-8 18-16 26-4 3 7-10 11-16 17l-14 13c-6 6-14 10-7 17l32 26c3 2 9 5 9 10Zm129-69c1 14-19 38-34 30-3-1-3-4-1-6 4-4 9-6 12-10 6-8 6-22-5-25-10-4-16 5-16 14l-1 59c-1 5-1 10-4 14-3 5-10 6-12 1-2-7 0-15 0-22 0-21 0-43-3-64 0-6 5-10 10-13 20-9 52-3 54 22Zm73 70c2 13-28 10-36 6-21-7-23-30-22-49 1-12 3-25 9-36 6-10 15-16 26-17 6 0 14 0 18 4 2 2 2 5 0 6-7 4-16 2-22 7-7 4-13 18-9 24 3 5 10 3 15 4 22-2 16 11-1 13-7 1-18 0-17 10 1 8 7 16 15 20l12 3c4 1 10 1 12 4v1Zm137-2c0 6-6 9-12 8-11-2-16-17-27-22-6-3-15-2-22-2l-23 1c-5 1-10 4-13 9-3 4-5 10-10 12-5 3-17 1-14-7l19-28 11-19c2-4 5-9 5-14-1-7-13-15-17-22-4-9 9-12 15-9 8 4 13 12 18 18a653 653 0 0 0 64 66l6 9Zm-51-30-3-5c-5-5-10-11-16-15-3-1-4 1-6 3l-7 12c-3 5-1 7 5 7h20c3 0 6 0 7-2Zm142 31c-1 5-8 7-12 7-8 0-13-5-18-10l-18-18c-5-5-14-12-15 1-1 8 3 23-7 27-3 2-7 0-9-4l-1-12 1-25c-1-13 0-28-2-41-1-5-1-12 4-16 3-3 10-3 13 1 6 7 3 17 2 25 0 7-2 18 5 13 10-8 18-18 27-27 7-8 17-16 25-4 4 7-9 11-15 17l-14 13c-6 6-14 10-7 17l32 26c3 2 9 5 9 10Zm64-92c2 9-14 7-20 10-3 1-6 4-6 7-1 4 0 8 1 12l13 27c3 7 6 14 5 22-1 10-7 21-17 24-8 2-21 1-25-6-2-4-1-8 2-9h11c7 1 13-2 13-9-3-11-11-21-16-31-5-7-9-14-8-22 2-17 18-30 34-30 6 0 11 0 13 4v1Z"/></svg>